<svg xmlns="http://www.w3.org/2000/svg" width="429.00000000000006" height="88.60437685659008" viewBox="0 0 369.66666666666663 76.34984765653331"><defs id="SvgjsDefs2047"/><g id="SvgjsG2048" featurekey="5TMTKC-0" transform="matrix(1.0493438243865967,0,0,1.0493438243865967,-12.067884829972392,-14.386506318943441)" fill="#00b9f5"><g xmlns="http://www.w3.org/2000/svg"><path d="M53.375,82.4c7.08-0.168,14.621-1.085,18.721-2.312c-6.094,0.769-11.572,1.175-16.451,1.292   C23.84,82.132,17.214,70.553,28.913,66.662c-6.007,1.573-10.778,5.009-7.99,8.371c3.328,4.018,15.247,7.013,27.88,7.366   C50.276,82.438,51.813,82.438,53.375,82.4z"/><path d="M36.022,62.207c2.034,8.295,9.691,14.364,18.824,14.197c10.684-0.225,19.316-8.86,19.312-19.31   c-0.021-10.461-17.638-26.451-19.433-43.384c-1.729,17.001-19.281,33.675-19.251,44.134c0,1.132,0.123,2.234,0.319,3.309   c-11.323,0.804-20.919,3.722-23.564,6.932c-1.752,2.136-0.223,4.835,3.287,6.216C9.588,66.983,22.42,63.244,36.022,62.207z"/><path d="M81.883,69.853c11.836,3.466,5.629,15.278-26.181,15.67c-4.884,0.058-10.372-0.152-16.488-0.704   c4.142,1.081,11.71,1.729,18.794,1.643c1.559-0.021,3.097-0.076,4.566-0.168c12.611-0.805,24.417-4.229,27.595-8.362   C92.838,74.47,87.943,71.209,81.883,69.853z"/></g></g><g id="SvgjsG2049" featurekey="7UBp9i-0" transform="matrix(2.4464831352233887,0,0,2.4464831352233887,99.6238517644573,7.006117887817757)" fill="#192947"><path d="M7.5 5.720000000000001 c2.0266 0 3.62 0.62666 4.78 1.88 s1.74 2.98 1.74 5.18 c0 2.28 -0.58334 4.0534 -1.75 5.32 s-2.73 1.9 -4.69 1.9 l-6.2 0 l0 -14.28 l6.12 0 z M7.3 17.36 c1.1333 0 2.0134 -0.37334 2.64 -1.12 s0.94 -1.8067 0.94 -3.18 c0 -1.5733 -0.33666 -2.75 -1.01 -3.53 s-1.71 -1.17 -3.11 -1.17 l-2.24 0 l0 9 l2.78 0 z M23.9 5.720000000000001 c1.2 0 2.1968 0.37 2.99 1.11 s1.19 1.6833 1.19 2.83 c0 1.7867 -0.75334 2.98 -2.26 3.58 l0 0.04 c0.50666 0.14666 0.90332 0.39 1.19 0.73 s0.50332 0.73666 0.64998 1.19 s0.24 1.18 0.28 2.18 c0.05334 1.3067 0.24 2.18 0.56 2.62 l-3.14 0 c-0.17334 -0.44 -0.30668 -1.2667 -0.40002 -2.48 c-0.10666 -1.28 -0.34 -2.1166 -0.7 -2.51 s-0.94666 -0.59 -1.76 -0.59 l-3.16 0 l0 5.58 l-3.14 0 l0 -14.28 l7.7 0 z M22.8 12.18 c0.66666 0 1.19 -0.15 1.57 -0.45 s0.57 -0.83 0.57 -1.59 c0 -0.72 -0.18666 -1.23 -0.56 -1.53 s-0.90668 -0.45 -1.6 -0.45 l-3.44 0 l0 4.02 l3.46 0 z M33.76 5.720000000000001 l5.96 9.58 l0.04 0 l0 -9.58 l2.94 0 l0 14.28 l-3.14 0 l-5.94 -9.56 l-0.04 0 l0 9.56 l-2.94 0 l0 -14.28 l3.12 0 z M48.599999999999994 5.720000000000001 l0 5.92 l5.58 -5.92 l3.92 0 l-5.58 5.64 l6.12 8.64 l-3.94 0 l-4.3 -6.42 l-1.8 1.82 l0 4.6 l-3.14 0 l0 -14.28 l3.14 0 z M67.02 5.720000000000001 l5.34 14.28 l-3.26 0 l-1.08 -3.18 l-5.34 0 l-1.12 3.18 l-3.18 0 l5.42 -14.28 l3.22 0 z M65.36 9.24 l-1.86 5.24 l3.7 0 l-1.8 -5.24 l-0.04 0 z M80.34 5.720000000000001 c3.0266 0 4.54 1.1733 4.54 3.52 c0 1.3467 -0.64666 2.3466 -1.94 3 c0.88 0.25334 1.5367 0.69668 1.97 1.33 s0.65 1.3967 0.65 2.29 c0 1.28 -0.46334 2.29 -1.39 3.03 s-2.1434 1.11 -3.65 1.11 l-6.92 0 l0 -14.28 l6.74 0 z M79.94 11.5 c1.2667 0 1.9 -0.56666 1.9 -1.7 c0 -1.0933 -0.70666 -1.64 -2.12 -1.64 l-2.98 0 l0 3.34 l3.2 0 z M80.12 17.56 c1.5333 0 2.3 -0.62666 2.3 -1.88 c0 -1.36 -0.74666 -2.04 -2.24 -2.04 l-3.44 0 l0 3.92 l3.38 0 z M90.82 5.720000000000001 l0 11.64 l6.96 0 l0 2.64 l-10.1 0 l0 -14.28 l3.14 0 z M110.22 5.720000000000001 l0 2.64 l-7.54 0 l0 3.06 l6.92 0 l0 2.44 l-6.92 0 l0 3.5 l7.7 0 l0 2.64 l-10.84 0 l0 -14.28 l10.68 0 z"/></g></svg>